# xmcd
#
# Track frame offsets: 
#        150
#        20336
#        37496
#        51922
#        72293
#        100175
#        112939
#        141930
#        163173
#        177212
#        198526
#        217607
#
# Disc length: 3272 seconds
#
# Revision: 0
# Processed by: cddbd v1.5.2PL0 Copyright (c) Steve Scherf et al.
# Submitted via: ExactAudioCopy v1.0b4
#
DISCID=ab0cc60c
DTITLE=Robin Trower - Something's About to Change
DYEAR=2015
DGENRE=Blues
TTITLE0=Something's About to Change
TTITLE1=Fallen
TTITLE2=Riff No. 7 (Still Alive)
TTITLE3=Dreams That Shone Like Diamonds
TTITLE4=Good Morning Midnight
TTITLE5=What You Never Want to Do
TTITLE6=Strange Love
TTITLE7=Gold to Grey
TTITLE8=The One Saving Grace
TTITLE9=Snakes and Ladders
TTITLE10=Up and Gone
TTITLE11='Til I Reach Home
EXTD=
EXTT0=
EXTT1=
EXTT2=
EXTT3=
EXTT4=
EXTT5=
EXTT6=
EXTT7=
EXTT8=
EXTT9=
EXTT10=
EXTT11=
PLAYORDER=
